<mxfile host="app.diagrams.net" modified="2022-05-11T11:13:08.550Z" agent="5.0 (Windows NT 10.0; Win64; x64) AppleWebKit/537.36 (KHTML, like Gecko) Chrome/101.0.4951.54 Safari/537.36" etag="Qsu9lxnRR0QyHX1sf3U6" version="18.0.2" type="github">
  <diagram id="N7j_COVPHRhCxS9aCvIu" name="Page-1">
    <mxGraphModel dx="920" dy="868" grid="1" gridSize="10" guides="1" tooltips="1" connect="1" arrows="1" fold="1" page="1" pageScale="1" pageWidth="1169" pageHeight="827" math="0" shadow="0">
      <root>
        <mxCell id="0" />
        <mxCell id="1" parent="0" />
        <mxCell id="ewmzL_PvELmquydSOoX--15" style="edgeStyle=orthogonalEdgeStyle;rounded=0;orthogonalLoop=1;jettySize=auto;html=1;exitX=0.5;exitY=1;exitDx=0;exitDy=0;entryX=0;entryY=0.5;entryDx=0;entryDy=0;" edge="1" parent="1" source="ewmzL_PvELmquydSOoX--1" target="ewmzL_PvELmquydSOoX--13">
          <mxGeometry relative="1" as="geometry" />
        </mxCell>
        <mxCell id="ewmzL_PvELmquydSOoX--21" style="edgeStyle=orthogonalEdgeStyle;rounded=0;orthogonalLoop=1;jettySize=auto;html=1;exitX=1;exitY=0.5;exitDx=0;exitDy=0;entryX=0;entryY=0.5;entryDx=0;entryDy=0;" edge="1" parent="1" source="ewmzL_PvELmquydSOoX--1" target="ewmzL_PvELmquydSOoX--11">
          <mxGeometry relative="1" as="geometry" />
        </mxCell>
        <mxCell id="ewmzL_PvELmquydSOoX--1" value="Чи співпадають&lt;br&gt;&amp;nbsp;заявлені об&#39;єми &lt;br&gt;з фактичними?" style="rhombus;whiteSpace=wrap;html=1;" vertex="1" parent="1">
          <mxGeometry x="440" y="360" width="160" height="80" as="geometry" />
        </mxCell>
        <mxCell id="ewmzL_PvELmquydSOoX--7" style="edgeStyle=orthogonalEdgeStyle;rounded=0;orthogonalLoop=1;jettySize=auto;html=1;exitX=1;exitY=0.5;exitDx=0;exitDy=0;entryX=0;entryY=0.5;entryDx=0;entryDy=0;" edge="1" parent="1" source="ewmzL_PvELmquydSOoX--2" target="ewmzL_PvELmquydSOoX--5">
          <mxGeometry relative="1" as="geometry" />
        </mxCell>
        <mxCell id="ewmzL_PvELmquydSOoX--2" value="Отримання накладного акту" style="rounded=0;whiteSpace=wrap;html=1;" vertex="1" parent="1">
          <mxGeometry x="120" y="370" width="120" height="60" as="geometry" />
        </mxCell>
        <mxCell id="ewmzL_PvELmquydSOoX--6" style="edgeStyle=orthogonalEdgeStyle;rounded=0;orthogonalLoop=1;jettySize=auto;html=1;exitX=1;exitY=0.5;exitDx=0;exitDy=0;entryX=0;entryY=0.5;entryDx=0;entryDy=0;" edge="1" parent="1" source="ewmzL_PvELmquydSOoX--3" target="ewmzL_PvELmquydSOoX--2">
          <mxGeometry relative="1" as="geometry" />
        </mxCell>
        <mxCell id="ewmzL_PvELmquydSOoX--3" value="Початок" style="ellipse;whiteSpace=wrap;html=1;aspect=fixed;" vertex="1" parent="1">
          <mxGeometry y="360" width="80" height="80" as="geometry" />
        </mxCell>
        <mxCell id="ewmzL_PvELmquydSOoX--4" value="Кінець" style="ellipse;whiteSpace=wrap;html=1;aspect=fixed;" vertex="1" parent="1">
          <mxGeometry x="1520" y="360" width="80" height="80" as="geometry" />
        </mxCell>
        <mxCell id="ewmzL_PvELmquydSOoX--8" style="edgeStyle=orthogonalEdgeStyle;rounded=0;orthogonalLoop=1;jettySize=auto;html=1;exitX=1;exitY=0.5;exitDx=0;exitDy=0;entryX=0;entryY=0.5;entryDx=0;entryDy=0;" edge="1" parent="1" source="ewmzL_PvELmquydSOoX--5" target="ewmzL_PvELmquydSOoX--1">
          <mxGeometry relative="1" as="geometry" />
        </mxCell>
        <mxCell id="ewmzL_PvELmquydSOoX--5" value="Звірення заявлених об&#39;ємів з наявними" style="rounded=0;whiteSpace=wrap;html=1;" vertex="1" parent="1">
          <mxGeometry x="280" y="370" width="120" height="60" as="geometry" />
        </mxCell>
        <mxCell id="ewmzL_PvELmquydSOoX--12" style="edgeStyle=orthogonalEdgeStyle;rounded=0;orthogonalLoop=1;jettySize=auto;html=1;exitX=1;exitY=0.5;exitDx=0;exitDy=0;entryX=0;entryY=0.5;entryDx=0;entryDy=0;" edge="1" parent="1" source="ewmzL_PvELmquydSOoX--9" target="ewmzL_PvELmquydSOoX--10">
          <mxGeometry relative="1" as="geometry" />
        </mxCell>
        <mxCell id="ewmzL_PvELmquydSOoX--9" value="Складання акту про невідповідність" style="rounded=0;whiteSpace=wrap;html=1;" vertex="1" parent="1">
          <mxGeometry x="720" y="460" width="120" height="60" as="geometry" />
        </mxCell>
        <mxCell id="ewmzL_PvELmquydSOoX--22" style="edgeStyle=orthogonalEdgeStyle;rounded=0;orthogonalLoop=1;jettySize=auto;html=1;exitX=1;exitY=0.5;exitDx=0;exitDy=0;entryX=0.5;entryY=1;entryDx=0;entryDy=0;" edge="1" parent="1" source="ewmzL_PvELmquydSOoX--10" target="ewmzL_PvELmquydSOoX--11">
          <mxGeometry relative="1" as="geometry" />
        </mxCell>
        <mxCell id="ewmzL_PvELmquydSOoX--10" value="Затвердження акту" style="rounded=0;whiteSpace=wrap;html=1;" vertex="1" parent="1">
          <mxGeometry x="880" y="460" width="120" height="60" as="geometry" />
        </mxCell>
        <mxCell id="ewmzL_PvELmquydSOoX--23" style="edgeStyle=orthogonalEdgeStyle;rounded=0;orthogonalLoop=1;jettySize=auto;html=1;exitX=1;exitY=0.5;exitDx=0;exitDy=0;entryX=0;entryY=0.5;entryDx=0;entryDy=0;" edge="1" parent="1" source="ewmzL_PvELmquydSOoX--11" target="ewmzL_PvELmquydSOoX--18">
          <mxGeometry relative="1" as="geometry" />
        </mxCell>
        <mxCell id="ewmzL_PvELmquydSOoX--11" value="Складання акту про отримання" style="rounded=0;whiteSpace=wrap;html=1;" vertex="1" parent="1">
          <mxGeometry x="1040" y="370" width="120" height="60" as="geometry" />
        </mxCell>
        <mxCell id="ewmzL_PvELmquydSOoX--14" style="edgeStyle=orthogonalEdgeStyle;rounded=0;orthogonalLoop=1;jettySize=auto;html=1;exitX=1;exitY=0.5;exitDx=0;exitDy=0;entryX=0;entryY=0.5;entryDx=0;entryDy=0;" edge="1" parent="1" source="ewmzL_PvELmquydSOoX--13" target="ewmzL_PvELmquydSOoX--9">
          <mxGeometry relative="1" as="geometry" />
        </mxCell>
        <mxCell id="ewmzL_PvELmquydSOoX--13" value="Повідомлення відділу логістики" style="rounded=0;whiteSpace=wrap;html=1;" vertex="1" parent="1">
          <mxGeometry x="560" y="460" width="120" height="60" as="geometry" />
        </mxCell>
        <mxCell id="ewmzL_PvELmquydSOoX--25" style="edgeStyle=orthogonalEdgeStyle;rounded=0;orthogonalLoop=1;jettySize=auto;html=1;exitX=1;exitY=0.5;exitDx=0;exitDy=0;entryX=0;entryY=0.5;entryDx=0;entryDy=0;" edge="1" parent="1" source="ewmzL_PvELmquydSOoX--17" target="ewmzL_PvELmquydSOoX--4">
          <mxGeometry relative="1" as="geometry" />
        </mxCell>
        <mxCell id="ewmzL_PvELmquydSOoX--17" value="Передача на склад" style="rounded=0;whiteSpace=wrap;html=1;" vertex="1" parent="1">
          <mxGeometry x="1360" y="370" width="120" height="60" as="geometry" />
        </mxCell>
        <mxCell id="ewmzL_PvELmquydSOoX--24" style="edgeStyle=orthogonalEdgeStyle;rounded=0;orthogonalLoop=1;jettySize=auto;html=1;exitX=1;exitY=0.5;exitDx=0;exitDy=0;entryX=0;entryY=0.5;entryDx=0;entryDy=0;" edge="1" parent="1" source="ewmzL_PvELmquydSOoX--18" target="ewmzL_PvELmquydSOoX--17">
          <mxGeometry relative="1" as="geometry" />
        </mxCell>
        <mxCell id="ewmzL_PvELmquydSOoX--18" value="Кінцевий збір документів" style="rounded=0;whiteSpace=wrap;html=1;" vertex="1" parent="1">
          <mxGeometry x="1200" y="370" width="120" height="60" as="geometry" />
        </mxCell>
      </root>
    </mxGraphModel>
  </diagram>
</mxfile>
